<svg width="167" height="67" viewBox="0 0 167 67" fill="none" xmlns="http://www.w3.org/2000/svg">
<path d="M59.9197 51.4764C60.2803 51.4838 60.652 51.5022 61.0347 51.5316C61.4174 51.5611 61.8 51.6163 62.1827 51.6972L62.1165 52.4037C61.8 52.389 61.4505 52.378 61.0678 52.3706C60.6851 52.3559 60.3171 52.3485 59.9639 52.3485C59.6916 52.3485 59.4561 52.3596 59.2574 52.3816C59.066 52.3964 58.9078 52.4405 58.7827 52.5141C58.6576 52.5803 58.5656 52.6944 58.5067 52.8563C58.4552 53.0109 58.4295 53.228 58.4295 53.5076C58.4295 53.9271 58.5031 54.2215 58.6502 54.3907C58.8048 54.5526 59.0513 54.6741 59.3899 54.755L60.9353 55.1414C61.5241 55.2812 61.9251 55.5278 62.1386 55.881C62.3594 56.2269 62.4697 56.6942 62.4697 57.283C62.4697 57.7245 62.4182 58.0815 62.3152 58.3537C62.2195 58.626 62.0687 58.8358 61.8626 58.983C61.6565 59.1228 61.3916 59.2185 61.0678 59.27C60.744 59.3289 60.3613 59.3583 59.9197 59.3583C59.6695 59.3583 59.342 59.3473 58.9373 59.3252C58.5399 59.3031 58.0799 59.2442 57.5574 59.1486L57.6236 58.431C58.0578 58.4457 58.4074 58.4605 58.6723 58.4752C58.9373 58.4825 59.1654 58.4862 59.3567 58.4862C59.5481 58.4862 59.7468 58.4862 59.9528 58.4862C60.3429 58.4862 60.6483 58.4568 60.8691 58.3979C61.0972 58.339 61.2554 58.2213 61.3438 58.0447C61.4394 57.868 61.4873 57.6068 61.4873 57.2609C61.4873 56.9665 61.4542 56.7384 61.3879 56.5765C61.3217 56.4146 61.215 56.2931 61.0678 56.2122C60.928 56.1239 60.7477 56.054 60.5269 56.0024L58.9483 55.605C58.3963 55.4652 58.0063 55.2223 57.7782 54.8765C57.5574 54.5306 57.447 54.0669 57.447 53.4855C57.447 53.044 57.4948 52.6907 57.5905 52.4258C57.6935 52.1535 57.8444 51.9511 58.0431 51.8187C58.2492 51.6788 58.5067 51.5868 58.8158 51.5427C59.1249 51.4985 59.4929 51.4764 59.9197 51.4764ZM74.3317 51.6089V59.2258H73.3602V51.6089H74.3317ZM76.7934 51.6089V52.47H70.9096V51.6089H76.7934ZM91.1226 51.6089V56.3115C91.1226 57.0475 91.0343 57.6399 90.8577 58.0888C90.6811 58.5377 90.394 58.8652 89.9966 59.0713C89.5992 59.27 89.0657 59.3693 88.396 59.3693C87.7116 59.3693 87.1633 59.27 86.7512 59.0713C86.339 58.8652 86.041 58.5377 85.857 58.0888C85.673 57.6399 85.581 57.0475 85.581 56.3115V51.6089H86.5525V56.3115C86.5525 56.8561 86.6077 57.2903 86.7181 57.6141C86.8358 57.9306 87.0271 58.1587 87.2921 58.2986C87.557 58.431 87.9103 58.4973 88.3518 58.4973C88.7934 58.4973 89.143 58.431 89.4005 58.2986C89.6655 58.1587 89.8568 57.9306 89.9746 57.6141C90.0923 57.2903 90.1512 56.8561 90.1512 56.3115V51.6089H91.1226ZM103.321 51.5096C103.865 51.5096 104.325 51.5758 104.701 51.7083C105.083 51.8407 105.389 52.0578 105.617 52.3596C105.853 52.6613 106.022 53.0624 106.125 53.5628C106.235 54.0633 106.29 54.6814 106.29 55.4174C106.29 56.1533 106.235 56.7715 106.125 57.2719C106.022 57.7724 105.853 58.1734 105.617 58.4752C105.389 58.7769 105.083 58.994 104.701 59.1265C104.325 59.2589 103.865 59.3252 103.321 59.3252C102.798 59.3252 102.313 59.3141 101.864 59.2921C101.422 59.2773 101.003 59.2553 100.605 59.2258L101.025 58.431C101.334 58.4384 101.676 58.4494 102.051 58.4641C102.434 58.4715 102.857 58.4752 103.321 58.4752C103.807 58.4752 104.193 58.3832 104.48 58.1992C104.767 58.0079 104.969 57.6914 105.087 57.2498C105.212 56.8009 105.275 56.1901 105.275 55.4174C105.275 54.6446 105.212 54.0375 105.087 53.5959C104.969 53.147 104.767 52.8269 104.48 52.6355C104.193 52.4442 103.807 52.3485 103.321 52.3485C102.865 52.3485 102.453 52.3522 102.085 52.3596C101.724 52.3669 101.371 52.3743 101.025 52.3816L100.605 51.6089C101.003 51.5795 101.422 51.5574 101.864 51.5427C102.313 51.5206 102.798 51.5096 103.321 51.5096ZM101.577 51.6089V59.2258H100.605V51.6089H101.577ZM116.524 51.6089V59.2258H115.553V51.6089H116.524ZM128.785 51.4654C129.337 51.4654 129.805 51.5316 130.187 51.6641C130.577 51.7966 130.887 52.0174 131.115 52.3264C131.35 52.6282 131.519 53.0329 131.623 53.5407C131.733 54.0485 131.788 54.6741 131.788 55.4174C131.788 56.1607 131.733 56.7862 131.623 57.294C131.519 57.8018 131.35 58.2102 131.115 58.5193C130.887 58.8211 130.577 59.0382 130.187 59.1706C129.805 59.3031 129.337 59.3693 128.785 59.3693C128.234 59.3693 127.763 59.3031 127.372 59.1706C126.99 59.0382 126.681 58.8211 126.445 58.5193C126.21 58.2102 126.037 57.8018 125.926 57.294C125.823 56.7862 125.772 56.1607 125.772 55.4174C125.772 54.6741 125.823 54.0485 125.926 53.5407C126.037 53.0329 126.21 52.6282 126.445 52.3264C126.681 52.0174 126.99 51.7966 127.372 51.6641C127.763 51.5316 128.234 51.4654 128.785 51.4654ZM128.785 52.3375C128.285 52.3375 127.888 52.4332 127.593 52.6245C127.306 52.8158 127.1 53.136 126.975 53.5849C126.857 54.0265 126.798 54.6373 126.798 55.4174C126.798 56.1901 126.857 56.8009 126.975 57.2498C127.1 57.6988 127.306 58.0189 127.593 58.2102C127.888 58.4016 128.285 58.4973 128.785 58.4973C129.286 58.4973 129.68 58.4016 129.967 58.2102C130.261 58.0189 130.467 57.6988 130.585 57.2498C130.71 56.8009 130.773 56.1901 130.773 55.4174C130.773 54.6373 130.71 54.0265 130.585 53.5849C130.467 53.136 130.261 52.8158 129.967 52.6245C129.68 52.4332 129.286 52.3375 128.785 52.3375ZM143.169 51.4764C143.53 51.4838 143.901 51.5022 144.284 51.5316C144.667 51.5611 145.049 51.6163 145.432 51.6972L145.366 52.4037C145.049 52.389 144.7 52.378 144.317 52.3706C143.934 52.3559 143.566 52.3485 143.213 52.3485C142.941 52.3485 142.705 52.3596 142.507 52.3816C142.315 52.3964 142.157 52.4405 142.032 52.5141C141.907 52.5803 141.815 52.6944 141.756 52.8563C141.704 53.0109 141.679 53.228 141.679 53.5076C141.679 53.9271 141.752 54.2215 141.899 54.3907C142.054 54.5526 142.301 54.6741 142.639 54.755L144.185 55.1414C144.773 55.2812 145.174 55.5278 145.388 55.881C145.609 56.2269 145.719 56.6942 145.719 57.283C145.719 57.7245 145.667 58.0815 145.564 58.3537C145.469 58.626 145.318 58.8358 145.112 58.983C144.906 59.1228 144.641 59.2185 144.317 59.27C143.993 59.3289 143.611 59.3583 143.169 59.3583C142.919 59.3583 142.591 59.3473 142.187 59.3252C141.789 59.3031 141.329 59.2442 140.807 59.1486L140.873 58.431C141.307 58.4457 141.657 58.4605 141.922 58.4752C142.187 58.4825 142.415 58.4862 142.606 58.4862C142.797 58.4862 142.996 58.4862 143.202 58.4862C143.592 58.4862 143.898 58.4568 144.118 58.3979C144.346 58.339 144.505 58.2213 144.593 58.0447C144.689 57.868 144.737 57.6068 144.737 57.2609C144.737 56.9665 144.703 56.7384 144.637 56.5765C144.571 56.4146 144.464 56.2931 144.317 56.2122C144.177 56.1239 143.997 56.054 143.776 56.0024L142.198 55.605C141.646 55.4652 141.256 55.2223 141.027 54.8765C140.807 54.5306 140.696 54.0669 140.696 53.4855C140.696 53.044 140.744 52.6907 140.84 52.4258C140.943 52.1535 141.094 51.9511 141.292 51.8187C141.498 51.6788 141.756 51.5868 142.065 51.5427C142.374 51.4985 142.742 51.4764 143.169 51.4764Z" fill="white"/>
<path d="M135.741 20.2793C135.496 20.2793 135.269 20.218 135.06 20.0953C134.852 19.9727 134.686 19.8071 134.564 19.5986C134.441 19.39 134.38 19.1631 134.38 18.9178V15.0174C134.38 14.7659 134.441 14.539 134.564 14.3366C134.686 14.1281 134.852 13.9625 135.06 13.8399C135.269 13.7172 135.496 13.6559 135.741 13.6559H139.641C139.887 13.6559 140.111 13.7172 140.313 13.8399C140.522 13.9625 140.687 14.1281 140.81 14.3366C140.939 14.539 141.003 14.7659 141.003 15.0174V18.9178C141.003 19.1631 140.939 19.39 140.81 19.5986C140.687 19.8071 140.522 19.9727 140.313 20.0953C140.111 20.218 139.887 20.2793 139.641 20.2793H135.741ZM135.805 18.8442H139.559V15.091H135.805V18.8442ZM142.034 20.2793V13.6559H148.152V15.091H143.479V16.2501H147.241V17.6851H143.479V20.2793H142.034Z" fill="white"/>
<path d="M59.5039 40.3286C58.9152 40.3286 58.3706 40.1814 57.8701 39.8871C57.3697 39.5927 56.9723 39.1953 56.6779 38.6948C56.3836 38.1944 56.2364 37.6498 56.2364 37.0611V27.7C56.2364 27.0965 56.3836 26.5519 56.6779 26.0662C56.9723 25.5658 57.3697 25.1684 57.8701 24.874C58.3706 24.5796 58.9152 24.4324 59.5039 24.4324H68.8429C69.4464 24.4324 69.991 24.5796 70.4767 24.874C70.9771 25.1684 71.3745 25.5658 71.6689 26.0662C71.978 26.5519 72.1325 27.0965 72.1325 27.7V29.2013H68.6663V27.8766H59.6585V36.8844H68.6663V34.5H65.2221V31.0558H72.1325V37.0611C72.1325 37.6498 71.978 38.1944 71.6689 38.6948C71.3745 39.1953 70.9771 39.5927 70.4767 39.8871C69.991 40.1814 69.4464 40.3286 68.8429 40.3286H59.5039ZM74.607 40.3286V24.4324H89.2889V27.8766H78.0733V30.6584H87.1032V34.1026H78.0733V36.8844H89.2889V40.3286H74.607ZM91.4663 40.3286V24.4324H94.9988L103.896 35.0299V24.4324H107.363V40.3286H103.83L94.8884 29.687V40.3286H91.4663ZM109.284 40.3286V24.4324H112.662V40.3286H109.284ZM117.781 40.3286C117.192 40.3286 116.648 40.1814 116.147 39.8871C115.647 39.5927 115.249 39.1953 114.955 38.6948C114.661 38.1944 114.514 37.6498 114.514 37.0611V24.4324H117.936V36.8844H126.943V24.4324H130.41V37.0611C130.41 37.6498 130.255 38.1944 129.946 38.6948C129.652 39.1953 129.254 39.5927 128.754 39.8871C128.268 40.1814 127.731 40.3286 127.142 40.3286H117.781ZM136.064 40.3286C135.476 40.3286 134.931 40.1814 134.431 39.8871C133.93 39.5927 133.533 39.1953 133.238 38.6948C132.944 38.1944 132.797 37.6498 132.797 37.0611V35.5818H136.219V36.8844H145.227V34.1026H136.064C135.476 34.1026 134.931 33.9554 134.431 33.661C133.93 33.3667 133.533 32.9766 133.238 32.4909C132.944 31.9905 132.797 31.4385 132.797 30.8351V27.7C132.797 27.0965 132.944 26.5519 133.238 26.0662C133.533 25.5658 133.93 25.1684 134.431 24.874C134.931 24.5796 135.476 24.4324 136.064 24.4324H145.426C146.014 24.4324 146.552 24.5796 147.037 24.874C147.538 25.1684 147.935 25.5658 148.229 26.0662C148.539 26.5519 148.693 27.0965 148.693 27.7V29.1792H145.227V27.8766H136.219V30.6584H145.426C146.014 30.6584 146.552 30.8056 147.037 31.1C147.538 31.3944 147.935 31.7918 148.229 32.2922C148.539 32.7779 148.693 33.3225 148.693 33.926V37.0611C148.693 37.6498 148.539 38.1944 148.229 38.6948C147.935 39.1953 147.538 39.5927 147.037 39.8871C146.552 40.1814 146.014 40.3286 145.426 40.3286H136.064Z" fill="white"/>
<path d="M59.8641 20C59.4041 20 58.9787 19.885 58.5877 19.655C58.1967 19.4251 57.8862 19.1146 57.6563 18.7236C57.4263 18.3326 57.3113 17.9072 57.3113 17.4472V16.2916H59.9848V17.3092H67.0222V15.1359H59.8641C59.4041 15.1359 58.9787 15.0209 58.5877 14.791C58.1967 14.561 57.8862 14.2563 57.6563 13.8768C57.4263 13.4858 57.3113 13.0546 57.3113 12.5832V10.1339C57.3113 9.66242 57.4263 9.23696 57.6563 8.8575C57.8862 8.46653 58.1967 8.15606 58.5877 7.92608C58.9787 7.6961 59.4041 7.58111 59.8641 7.58111H67.1774C67.6374 7.58111 68.0571 7.6961 68.4366 7.92608C68.8275 8.15606 69.138 8.46653 69.368 8.8575C69.6094 9.23696 69.7302 9.66242 69.7302 10.1339V11.2895H67.0222V10.2719H59.9848V12.4452H67.1774C67.6374 12.4452 68.0571 12.5602 68.4366 12.7901C68.8275 13.0201 69.138 13.3306 69.368 13.7216C69.6094 14.101 69.7302 14.5265 69.7302 14.9979V17.4472C69.7302 17.9072 69.6094 18.3326 69.368 18.7236C69.138 19.1146 68.8275 19.4251 68.4366 19.655C68.0571 19.885 67.6374 20 67.1774 20H59.8641ZM71.6297 20V7.59836H81.4785C81.95 7.59836 82.3755 7.71335 82.7549 7.94333C83.1459 8.17331 83.4564 8.48378 83.6863 8.87474C83.9278 9.26571 84.0486 9.69117 84.0486 10.1511V13.3593C84.0486 13.8193 83.9278 14.2448 83.6863 14.6357C83.4564 15.0267 83.1459 15.3372 82.7549 15.5671C82.3755 15.7971 81.95 15.9121 81.4785 15.9121L74.3032 15.9294V20H71.6297ZM74.3032 13.2214H81.3406V10.2719H74.3032V13.2214ZM85.308 20V10.1339C85.308 9.66242 85.423 9.23696 85.6529 8.8575C85.8829 8.46653 86.1934 8.15606 86.5844 7.92608C86.9753 7.6961 87.4008 7.58111 87.8607 7.58111H95.1568C95.6283 7.58111 96.0538 7.6961 96.4332 7.92608C96.8242 8.15606 97.1347 8.46653 97.3646 8.8575C97.6061 9.23696 97.7269 9.66242 97.7269 10.1339V20H95.0189V15.9984H87.9815V20H85.308ZM87.9815 13.3076H95.0189V10.2719H87.9815V13.3076ZM109.334 20L105.729 15.7051H109.231L112.094 19.0858V20H109.334ZM99.6921 20V7.59836H109.541C110.012 7.59836 110.438 7.71335 110.817 7.94333C111.208 8.17331 111.519 8.48378 111.749 8.87474C111.99 9.26571 112.111 9.69117 112.111 10.1511V13.3593C112.111 13.8193 111.99 14.2448 111.749 14.6357C111.519 15.0267 111.208 15.3372 110.817 15.5671C110.438 15.7971 110.012 15.9121 109.541 15.9121L102.366 15.9294V20H99.6921ZM102.366 13.2214H109.403V10.2719H102.366V13.2214ZM113.943 20V7.58111H116.633V12.4452H119.065L123.136 7.58111H125.93V8.51253L121.498 13.7906L125.93 19.0686V20H123.136L119.065 15.1359H116.633V20H113.943Z" fill="white"/>
<path d="M147.796 46.501H56.9546" stroke="white" stroke-width="0.919918"/>
<path d="M2.64911 18.0378C3.44089 18.7407 3.74089 18.2721 4.65596 18.2228C4.46966 18.8654 3.74089 19.1079 3.59295 19.8286C3.41213 20.7069 3.80665 21.3755 3.69706 22.1948C2.69021 21.0891 2.38473 19.8848 0.547742 20.1396C0.443632 19.482 1.49843 19.5888 1.64226 18.8339L1.36966 16.3704L2.64911 18.0365V18.0378Z" fill="#51BE9B"/>
<path d="M6.71246 16.1692C6.05219 16.7487 6.12616 17.2529 6.16315 18.086C5.52068 17.7092 5.6015 16.7638 4.65767 16.9899C4.60972 16.6145 5.0878 16.5103 5.17684 16.2089C5.28643 15.8348 5.16041 15.332 5.20561 14.936C5.78506 15.4265 5.68232 16.3062 6.71109 16.1705L6.71246 16.1692Z" fill="#51BE9B"/>
<path d="M19.1754 15.7567L21.7904 20.0617L17.5987 23.1486C17.4233 23.5117 18.8521 25.2408 18.5685 25.6286C17.8754 25.9533 17.148 25.5614 16.3671 25.6217C16.163 25.6382 15.9713 25.5149 16.0274 25.8259L19.6233 29.7664L24.1082 30.1446L21.0877 35.5498L24.8356 39.4437L29.163 35.6717C29.3247 35.184 28.1576 33.859 27.6151 33.9728C27.3576 34.0262 27.463 34.8812 27.3302 35.0826C27.1973 35.284 24.8452 36.4089 24.5192 36.8596C24.5987 36.3253 23.8096 35.1826 23.9 34.7894C23.9493 34.5729 26.085 31.4709 26.3795 31.1174C26.5644 30.894 26.748 30.6186 27.0548 30.5597C28.4206 30.3008 30.3658 30.7735 31.7836 30.7557C34.0589 32.2025 36.063 34.4441 38.311 35.8731C39.6767 36.7418 40.7987 36.8802 42.2233 37.442C42.3685 37.4995 42.6315 37.4817 42.5987 37.679C39.1124 38.053 35.7754 38.7367 32.4302 39.7726C31.9343 39.926 31.3781 40.2453 30.8548 40.3891C30.5329 40.4782 30.1877 40.3494 29.8617 40.4919C29.3233 40.7262 26.3781 45.0161 25.6082 45.8286C24.8507 46.6288 24.7699 46.278 24.1096 45.5559C22.6521 43.9611 21.3836 41.9182 19.9261 40.285C19.6178 40.2288 19.7356 40.4193 19.7219 40.6234C19.6959 41.0167 19.8644 41.5099 19.5165 41.788L15.911 37.3063C15.6671 36.4774 17.4041 34.7058 17.0589 33.7015L12.5329 27.4015L11.8877 26.9508L5.33838 25.2107V24.801L11.3671 23.4994L12.3151 23.0705L9.17537 15.073L13.763 19.5493L19.1713 15.7581L19.1754 15.7567Z" fill="#51BE9B"/>
<path d="M27.123 14.1111L29.723 12.6053L38.4285 22.8773C40.6271 24.7009 43.7819 25.1764 46.4367 24.1145C46.3422 25.9436 45.0751 26.8767 43.4312 27.3412C39.5312 28.4428 40.0244 28.7305 37.3942 31.442C37.2641 31.5763 37.2148 31.701 36.9874 31.6489L35.9531 26.5849L26.3353 16.8788C25.8175 16.7637 23.3573 19.0984 23.1518 18.9066C22.849 16.613 22.4066 14.3166 22.4682 11.9901C23.2107 10.8734 24.1668 9.91708 24.8545 8.75931C25.0915 8.35923 25.312 7.55084 25.5477 7.26037C25.6997 7.07266 25.7833 7.15761 25.8942 7.32477C26.1668 7.73581 26.3422 8.54557 26.7079 9.11418C27.1915 9.86501 27.9285 10.4843 28.4312 11.2228L27.123 14.1111Z" fill="#51BE9B"/>
<path d="M26.9878 47.27C27.2987 47.2125 27.2056 47.2878 27.2919 47.444C28.1453 48.9978 28.7453 50.8543 29.7056 52.3875C28.722 53.6549 28.0645 55.1908 27.6015 56.7213C27.2905 57.7516 27.1152 59.4931 26.7234 60.3645C26.6316 60.5686 26.5891 60.7495 26.3042 60.6974C25.3549 58.2312 24.3891 55.6717 22.3946 53.8508C21.4563 52.9945 19.8289 52.1464 19.0371 51.3161C18.9275 51.201 18.7754 51.1215 18.7946 50.9283L20.4796 46.4507L25.0069 50.0117C25.2302 50.0048 26.5179 48.1538 26.7727 47.8071C26.8919 47.6455 26.9713 47.4714 26.9891 47.27H26.9878Z" fill="#51BE9B"/>
<path d="M18.9041 45.3505L14.2917 47.6469C13.789 47.6715 12.3178 45.9479 11.015 45.9123C10.5561 45.8999 9.0301 46.3589 8.49448 46.5165C7.95887 46.6741 7.42736 47.0166 7.04243 47.1207C6.77668 47.1934 6.80955 46.9193 6.79586 46.7371C6.56298 43.5789 10.3753 43.161 11.9219 41.4497C12.7931 40.4838 13.2301 39.2219 13.8383 38.0901C14.078 37.9271 14.8822 40.8195 15.0027 41.1017C15.9068 43.209 17.1685 43.4501 18.6328 44.8696C18.7794 45.0121 18.952 45.1094 18.9041 45.3492V45.3505Z" fill="#51BE9B"/>
<path d="M18.2163 14.2495L18.3684 14.8661L14.1739 18.2216L8.21906 13.8399C8.41906 15.321 11.6341 21.4908 11.3451 22.5074C11.2793 22.7403 10.9821 22.9527 10.7492 23.0157L3.42317 24.664C3.1766 24.8791 4.03961 25.1819 4.15331 25.2354C6.60947 26.3753 9.19714 27.2508 11.6328 28.4415L14.9191 33.9125C14.8889 34.1975 14.7067 34.4153 14.5752 34.6551C13.8985 35.891 11.2971 39.9438 10.3163 40.6714C9.41632 41.34 8.47386 41.4688 7.59441 42.3334C5.88208 44.0187 5.08071 46.8357 6.10126 49.0498C8.13276 47.8962 10.4752 46.7384 12.5971 48.436C11.9807 49.1074 11.4971 48.3373 10.8793 48.2387C8.92728 47.9304 7.39304 49.0704 5.81632 49.9966C3.96838 46.6288 5.50126 42.7143 8.64235 40.7783C8.99304 40.5618 9.47112 40.4713 9.85194 40.2069C10.7793 39.5588 13.2725 35.6676 13.8903 34.5181C13.9958 34.3208 14.2245 34.0714 14.1793 33.833L11.1424 28.932C8.15468 27.4468 4.79578 26.4356 1.82454 24.9572C1.67934 24.8846 1.25605 24.8298 1.36975 24.5982L10.6725 22.3238L6.84783 12.0601L14.0739 17.3831C14.6519 17.4968 17.4519 14.5702 18.215 14.2509L18.2163 14.2495Z" fill="#78E781"/>
<path d="M31.6422 29.1828L25.7969 25.641L25.5435 25.7478L24.3148 26.9919C24.1408 26.9125 22.538 24.0091 22.4312 23.6639C22.3682 23.4597 22.2805 23.4104 22.3915 23.1624C22.638 22.6102 25.2476 21.0085 25.7586 20.344L26.2093 20.4344L31.16 24.9395L31.6408 29.1842L31.6422 29.1828Z" fill="#51BE9B"/>
<path d="M31.7657 11.3832C31.8081 11.4901 31.8369 11.6271 31.915 11.7093C34.9177 14.8675 38.5383 21.0126 42.6643 22.3402C45.0328 23.102 47.4273 21.8278 49.0396 20.1412C49.141 20.5974 48.8314 21.0619 48.8136 21.462C48.7273 23.4706 49.6218 25.0586 47.941 26.9193C46.8122 28.1688 42.7479 29.2622 41.0232 30.4131C40.5602 30.7228 38.5944 32.693 38.5205 33.1123C38.4109 33.7385 40.8629 35.2114 41.4136 35.5087C42.0177 35.8361 42.6479 36.128 43.2917 36.3705C43.5136 36.4541 46.2218 37.1405 46.0259 37.4022C44.7451 37.7543 42.9259 36.9925 41.7506 36.4048C41.0273 36.043 37.6643 33.9317 37.6643 33.2247C38.9191 31.3859 40.1862 30.1172 42.1602 29.0855C43.6629 28.3004 46.7985 27.4084 47.741 26.1725C48.6451 24.986 48.3533 23.313 48.2164 21.9223C46.5533 22.7266 45.2835 23.35 43.3561 23.1527C41.9972 23.0143 39.3903 21.3866 38.4218 20.4152L31.0972 11.7134L31.7643 11.3818L31.7657 11.3832Z" fill="#78E781"/>
<path d="M43.2873 38.0916C41.9791 39.015 40.4928 39.6467 39.3134 40.7606C38.3805 41.6402 37.8312 42.8144 36.8901 43.679L33.3641 43.4255L31.9175 42.9515C32.0353 42.5212 33.649 40.8113 33.4243 40.5564C33.1545 40.5496 32.9353 40.6647 33.0134 40.2838C36.3202 39.1315 39.786 38.3409 43.2873 38.0916Z" fill="#51BE9B"/>
<path d="M30.6878 52.8876L28.4097 48.1579L30.2138 45.4792C31.3631 46.241 32.9467 46.8905 34.0234 47.6975C34.1535 47.7948 34.2425 47.8167 34.248 48.0168C34.2576 48.3689 31.222 52.3615 30.6878 52.8862V52.8876Z" fill="#51BE9B"/>
<path d="M22.2368 25.8507C22.0053 25.6794 21.8478 24.9711 21.3697 25.2793L23.9738 27.3373C23.9738 27.5305 22.4341 29.2596 22.119 29.3185C21.804 29.3774 20.2779 29.3665 20.0012 29.25C19.4642 29.0239 18.1889 26.9208 17.5341 26.5097C17.3711 25.7849 20.0067 26.5563 20.2725 26.3056L19.7245 24.9368C20.4218 24.9163 20.6382 24.4696 21.23 25.0725L20.2725 23.9092L21.4464 22.8843C21.656 22.8378 21.7779 23.1323 21.867 23.2707C22.0656 23.5831 23.3752 25.8343 23.3999 25.9877C23.4396 26.2343 23.4149 26.2878 23.2177 26.4385C22.9958 26.0973 22.4834 26.0316 22.2355 25.848L22.2368 25.8507Z" fill="#51BE9B"/>
<path d="M26.9846 64.1227C27.8353 60.6891 28.5955 57.0116 30.9572 54.2576C31.4257 54.9276 30.8476 55.2154 30.5243 55.81C29.7914 57.1569 29.1599 58.5476 28.6997 60.0136C28.2394 61.4797 27.8572 64.2816 27.2681 65.4325C27.1668 65.6298 27.1476 65.823 26.8517 65.7669C25.4106 62.4127 23.8942 58.564 21.2353 55.969C20.1517 54.9112 18.6517 54.1658 17.7271 53.019L18.0147 52.6162C20.8969 54.6769 23.2229 56.9281 24.9558 60.0575C25.6202 61.2563 26.0531 62.6306 26.686 63.8075C26.7353 63.8993 26.8983 64.1898 26.986 64.1227H26.9846Z" fill="#78E781"/>
<path d="M13.5614 48.5045C15.1053 47.9276 16.5929 47.0247 18.0381 46.1917L19.4039 47.3357C18.971 48.8196 18.4943 50.2911 17.7395 51.6517L13.5601 48.5045H13.5614Z" fill="#51BE9B"/>
<path d="M21.245 18.4887L18.9258 14.7496L21.9162 11.3708L22.5833 17.5803C22.5354 17.7776 21.4011 18.5956 21.245 18.4874V18.4887Z" fill="#51BE9B"/>
<path d="M29.1777 44.5284L30.0668 43.1912L35.6161 44.053L33.4764 46.9865L29.1777 44.5284Z" fill="#51BE9B"/>
<path d="M32.5655 24.9737C32.8614 25.3217 33.2231 26.985 33.5573 27.2029C33.845 27.3906 34.0833 26.8521 34.3779 26.7781L34.6368 26.9439L35.2039 32.3354C34.9737 32.3875 34.9272 32.2601 34.797 32.1272C33.86 31.1722 33.1272 29.6102 32.0861 28.6662C31.8422 27.3947 32.1655 26.0848 32.1929 24.801C32.2039 24.7846 32.5354 24.9394 32.5655 24.975V24.9737Z" fill="#51BE9B"/>
<path d="M25.8874 4.79559C25.5792 4.73941 25.6696 4.81066 25.5833 4.9696C25.2737 5.53821 25.1189 6.37263 24.7682 7.03029C24.1792 8.13052 23.1765 9.49929 22.3299 10.4132C22.3066 8.94849 23.6669 7.84416 24.297 6.55896C24.86 5.41078 25.0669 4.06804 25.8217 3.0144C26.3134 3.96939 26.56 5.01618 27.1491 5.93281C27.6751 6.75215 29.1929 8.11545 29.4902 8.80874C29.5737 9.00467 29.5162 9.17046 29.3847 9.31706C29.171 9.5541 29.2066 9.37598 29.0641 9.22526C28.186 8.28809 26.9408 6.78915 26.2778 5.70948C26.1107 5.43682 25.9545 5.11072 25.8874 4.79559Z" fill="#78E781"/>
<path d="M46.8477 37.8173C46.9244 38.1845 46.749 38.053 46.5778 38.1571C45.8641 38.5901 45.0052 38.8984 44.3107 39.3204C42.4518 40.4507 41.2531 42.1538 39.871 43.7857L39.1778 43.9816C39.0093 43.8254 40.1696 42.5375 40.3394 42.3361C42.0285 40.337 42.9819 39.5273 45.2408 38.2311C45.3778 38.153 45.3847 37.8982 45.5641 37.8393C45.9134 37.7255 46.4641 37.868 46.8463 37.8173H46.8477Z" fill="#78E781"/>
<path d="M32.056 55.2155C32.0341 55.1991 31.908 54.7744 31.982 54.6757L35.23 49.9665C35.6587 49.6281 35.9574 48.2785 36.3752 49.3226L32.5258 54.9347C32.4505 55.0703 32.1916 55.321 32.056 55.2155Z" fill="#78E781"/>
<path d="M12.0107 49.2089C12.3299 49.1842 16.4299 52.726 17.06 53.159L16.9176 53.5741L11.5724 49.6007C11.4532 49.4391 11.8847 49.2198 12.0107 49.2089Z" fill="#78E781"/>
<path d="M21.1794 10.9078C20.5671 11.7559 19.3616 13.0575 18.4917 13.6316C18.3698 13.7125 18.2959 13.9673 18.1493 13.7029C17.8424 13.1439 18.2616 13.1836 18.4945 12.9561C19.6959 11.7792 20.7712 10.5831 21.7137 9.1814C21.9986 9.79111 21.5356 10.4159 21.1794 10.9091V10.9078Z" fill="#78E781"/>
<path d="M38.6301 44.2571L35.8931 48.0264C35.7164 48.3771 35.0547 48.247 35.2725 47.8181L37.9616 44.1338L38.6301 44.2571Z" fill="#78E781"/>
<path d="M28.2202 12.878L29.2462 10.6885L30.1312 11.6983C30.0791 11.9449 28.3271 12.9848 28.2202 12.8766V12.878Z" fill="#51BE9B"/>
<path d="M30.0014 8.77042C30.2699 8.54572 31.5151 10.442 31.7754 10.6187L31.4398 10.9585C31.059 10.379 30.3398 9.80488 29.9891 9.24723C29.8973 9.10063 29.9603 8.80468 30.0028 8.76905L30.0014 8.77042Z" fill="#78E781"/>
</svg>
